<svg xmlns="http://www.w3.org/2000/svg" width="300" height="216" viewBox="0 0 300 216"><path fill="#CF2036" d="M218.32 30.966c3.043-.24 8.263-.663 12.747-1.024-2.917 3.99-5.454 8.22-7.756 12.584l-13.03 1.06-4.132-11.173c2.75-3.58 5.713-7.016 8.932-10.21 1.22 3.303 2.444 6.617 3.24 8.763zm-1.808 133.748l13.434-1.29 2.555-14.174c-3.572-4.617-6.7-9.62-9.43-14.887-.826 4.544-2.46 13.645-3.26 18.057-3.153.3-8.668.832-13.278 1.277a99.52 99.52 0 0 0 9.982 11.017zM215.325 62.8a99.586 99.586 0 0 1 5.135-14.488c-4.64 1.65-11.336 4.038-14.893 5.304a3968.94 3968.94 0 0 0-6.946-9.8 99.827 99.827 0 0 0-5.91 12.27l8.353 11.802 14.263-5.088zm-1.88 80.53l6.923-14.693c-2.272-5.17-4.152-10.56-5.544-16.2-1.71 3.63-6.226 13.212-8.323 17.647-3.44-.578-9.716-1.627-14.496-2.436a97.827 97.827 0 0 0 6.003 13.115l15.438 2.568zm-27.378-59.858l12.39 10.27 13.48-9.293c.223-5.426.982-10.718 2.06-15.925a11643 11643 0 0 0-14.882 10.27c-2.574-2.122-7.13-5.918-10.788-8.944a97.85 97.85 0 0 0-2.26 13.62zm114.068-7V2.892c-28.272 0-52.018 2.25-72.375 5.907 33.836 7.92 61.916 33.345 72.375 67.67zm-86.51 30.3c-.157-.832-.398-1.65-.53-2.495-.754-4.713-1.043-9.39-1.127-14.03-2.586 3.073-9.36 11.077-12.533 14.826-3.224-1.47-9.148-4.17-13.584-6.195.2 3.182.496 6.376 1.015 9.583.24 1.497.584 2.943.886 4.4l14.957 6.813 10.92-12.9zm-106.563 14.416c-4.283-26.847 2.626-52.894 17.276-73.396-20.928 11.055-39.212 19.793-63.533 19.793C19.83 67.585 0 50.132 0 50.132 22.177 157.96 89.787 179.75 144.145 183.924c-19.172-14.916-32.955-36.852-37.083-62.736zm47.78 15.707c1.03-5.015 1.65-10.15 1.893-15.38l-8.83-9.355-13.163 6.883c-.018 4.773-.47 9.45-1.145 14.055 4.104-2.134 9.022-4.7 11.825-6.184 2.242 2.374 6.202 6.557 9.42 9.98zm82.276 17.802c.404 4.906 1.012 12.066 1.326 15.84-2.447.915-6.4 2.397-10.13 3.784a98.033 98.033 0 0 0 13.27 7.776l9.492-3.543-.982-11.74c-4.665-3.652-9.023-7.69-12.976-12.115zm14.6 38.61c30.254 8.714 48.417 20.957 48.417 20.957V134.65c-7.68 25-25.06 46.266-48.416 58.658zM145.49 163.04a97.953 97.953 0 0 0 6.01-13.983l-5.667-10.5-13.86 3.1a98.468 98.468 0 0 1-4.153 13.15c4.237-.953 8.98-2.014 11.807-2.64 1.398 2.59 3.78 6.99 5.864 10.872zm-.994-62.006c2.85 1.736 7.95 4.894 11.987 7.39-.017-.218-.017-.446-.035-.664a100.803 100.803 0 0 0-2.55-14.947l-10.824-6.677-10.95 10.077c.988 4.303 1.802 8.68 2.218 13.188.036.314.018.616.042.93 3.454-3.17 7.715-7.09 10.114-9.295zM129.74 87.546c2.477-3.906 5.455-8.606 7.16-11.283 3.074.917 8.456 2.532 12.91 3.857a98.41 98.41 0 0 0-7.287-14.62l-10.854-3.255-7.5 11.812a98.13 98.13 0 0 1 5.57 13.49z"/></svg>
